# xmcd
#
# Track frame offsets:
#	150
#	16530
#	30201
#	40864
#	55003
#	76575
#	92473
#	106240
#	114519
#	128196
#	153859
#	166948
#	182837
#	196476
#	201854
#	217300
#	232221
#	250768
#	253624
#	264683
#	281563
#
# Disc length: 4024 seconds
#
# Revision: 0
# Processed by: cddbd v1.4PL0 Copyright (c) Steve Scherf et al.
# Submitted via: dBpowerAMP V4.0
#
DISCID=130fb615
DTITLE=Michael Martin Murphey - Cowboy Songs
DYEAR=1990
DGENRE=Country
TTITLE0=Cowboy Logic
TTITLE1=I Ride an Old Paint/Whoopee Ti-Yi-Yo, Git Along Little Doggies
TTITLE2=Tumbling Tumbleweeds
TTITLE3=Tying Knots in the Devil's Tail
TTITLE4=Old Chisholm Trail
TTITLE5=Home on the Range
TTITLE6=What Am I Doing Here
TTITLE7=Wild Ripplin' Waters
TTITLE8=Yellow Rose of Texas
TTITLE9=Spanish Is the Loving Tongue
TTITLE10=Cowboy Pride
TTITLE11=Red River Valley
TTITLE12=Let the Cowboy Dance
TTITLE13=Jack of Diamonds
TTITLE14=Texas Rangers
TTITLE15=When the Work's All Done This Fall
TTITLE16=Streets of Laredo
TTITLE17=O Bury Me Not on the Lone Prairie
TTITLE18=Where Do Cowboys Go When They Die/Reincarnation
TTITLE19=Goodbye Old Paint
TTITLE20=Happy Trails
EXTD=
EXTT0=
EXTT1=
EXTT2=
EXTT3=
EXTT4=
EXTT5=
EXTT6=
EXTT7=
EXTT8=
EXTT9=
EXTT10=
EXTT11=
EXTT12=
EXTT13=
EXTT14=
EXTT15=
EXTT16=
EXTT17=
EXTT18=
EXTT19=
EXTT20=
PLAYORDER=
